<svg xmlns="http://www.w3.org/2000/svg" viewBox="0 0 600 900">
    <defs>
        <linearGradient id="bg" x1="0" y1="0" x2="1" y2="1">
            <stop offset="0%" stop-color="#355cde"/>
            <stop offset="52%" stop-color="#7f7de8"/>
            <stop offset="100%" stop-color="#f27fb9"/>
        </linearGradient>
        <linearGradient id="shine" x1="0" y1="0" x2="1" y2="0">
            <stop offset="0%" stop-color="rgba(255,255,255,0.18)"/>
            <stop offset="100%" stop-color="rgba(255,255,255,0)"/>
        </linearGradient>
    </defs>

    <rect width="600" height="900" rx="28" fill="url(#bg)"/>
    <rect x="28" y="28" width="544" height="844" rx="24" fill="rgba(14,16,22,0.20)" stroke="rgba(255,255,255,0.14)"/>
    <circle cx="480" cy="150" r="118" fill="rgba(255,255,255,0.08)"/>
    <circle cx="118" cy="740" r="164" fill="rgba(255,255,255,0.06)"/>
    <path d="M0 350 C180 260 320 420 600 250 L600 0 L0 0 Z" fill="rgba(255,255,255,0.06)"/>
    <path d="M0 820 C210 700 390 930 600 760 L600 900 L0 900 Z" fill="rgba(0,0,0,0.16)"/>

    <text x="392" y="270" font-size="108" font-weight="800" fill="rgba(255,255,255,0.12)" transform="rotate(-16 392 270)">COMET</text>
    <text x="56" y="112" font-size="20" font-weight="700" fill="#ffffff" letter-spacing="2">MANGA SHOP</text>
    <rect x="56" y="142" width="148" height="38" rx="19" fill="rgba(255,255,255,0.12)" stroke="rgba(255,255,255,0.18)"/>
    <text x="74" y="167" font-size="18" font-weight="700" fill="#ffffff">Романтика</text>
    <text x="56" y="226" font-size="18" fill="rgba(255,255,255,0.82)">Тематическая локальная обложка</text>

    <rect x="56" y="430" width="84" height="6" rx="3" fill="#ffffff"/>
    <rect x="56" y="444" width="160" height="6" rx="3" fill="rgba(255,255,255,0.35)"/>
    <g font-family="Arial, sans-serif">
        <text x="56" y="520" font-size="50" font-weight="700" fill="#ffffff">Твоё имя. Том 1</text>
    </g>

    <text x="56" y="808" font-size="22" fill="rgba(255,255,255,0.78)">Макото Синкай</text>
    <text x="56" y="846" font-size="18" fill="rgba(255,255,255,0.54)">Том 1</text>
    <text x="444" y="846" font-size="18" fill="rgba(255,255,255,0.54)">OFFLINE</text>
</svg>